<svg id="Слой_1" data-name="Слой 1" xmlns="http://www.w3.org/2000/svg" viewBox="0 0 601.57 318.13"><defs><style>.cls-1,.cls-2,.cls-3{fill:#4ecca3;}.cls-2{font-size:60px;font-family:Lato-Light, Lato;}.cls-3{stroke:#4ecca3;stroke-miterlimit:10;stroke-width:2.5px;}.cls-4{fill:#fff;}</style></defs><title>logo nik00</title><path class="cls-1" d="M1008.23,557.7A141.68,141.68,0,0,1,767.57,659.16,141.71,141.71,0,1,1,968,458.77,141.35,141.35,0,0,1,1008.23,557.7Zm0,0a139.17,139.17,0,0,0-10.76-53.21,136.79,136.79,0,1,0,0,106.41A139.3,139.3,0,0,0,1008.23,557.7Z" transform="translate(-475.17 -415.96)"/><path class="cls-1" d="M838.11,594.17c-.33-7.6-.65-15.21-.9-22.81s-.54-15.22-.74-22.82l-.64-22.82-.51-22.81,4.29,2.35-11.18,7.47-11.23,7.41L794.75,535l-45.07,29.36-45.27,29.06c-15.09,9.68-30.29,19.19-45.43,28.8q-45.5,28.7-91.39,56.77c-30.63,18.65-61.34,37.2-92.42,55.15,29.4-20.59,59.19-40.57,89.05-60.45s59.92-39.42,90.08-58.82c15.11-9.66,30.15-19.41,45.31-29l45.47-28.74,45.66-28.44,22.92-14.08,11.45-7,11.5-7,4.41-2.67-.12,5-.51,22.81-.63,22.82c-.2,7.6-.49,15.21-.74,22.82S838.45,586.57,838.11,594.17Z" transform="translate(-475.17 -415.96)"/><text class="cls-2" transform="translate(368.09 160.75)">CH</text><line class="cls-3" x1="336.08" y1="141.05" x2="362.95" y2="141.37"/><line class="cls-4" x1="8.82" y1="312.45" x2="154.36" y2="241.81"/><path class="cls-1" d="M484,728.41q17.81-9.61,35.87-18.71c6-3.06,12.06-6,18.09-9.05l18.15-8.91L574.33,683c6.1-2.87,12.18-5.79,18.3-8.61q18.32-8.57,36.9-16.61-17.82,9.63-35.88,18.72c-6,3.07-12,6-18.08,9l-18.16,8.9-18.23,8.76c-6.1,2.87-12.18,5.78-18.3,8.6Q502.57,720.37,484,728.41Z" transform="translate(-475.17 -415.96)"/></svg>