<?xml version="1.0" encoding="utf-8"?>
<!-- Generator: Adobe Illustrator 18.1.1, SVG Export Plug-In . SVG Version: 6.00 Build 0)  -->
<svg version="1.1" id="Слой_1" xmlns="http://www.w3.org/2000/svg" xmlns:xlink="http://www.w3.org/1999/xlink" x="0px" y="0px"
	 viewBox="0 0 1920 1080" enable-background="new 0 0 1920 1080" xml:space="preserve">
<title>logo nik00</title>
<path fill="#FFFFFF" d="M1701.3,484.7c0.2,249.7-202.2,452.3-451.9,452.5c-118.2,0.1-231.7-46.1-316.2-128.7
	c-176.6-176.6-176.6-463,0.1-639.6s463-176.6,639.6,0.1l0,0C1655.4,253.4,1701.5,366.7,1701.3,484.7z M1701.3,484.7
	c-0.2-58.3-11.9-116-34.3-169.8c-93.8-222.1-349.9-326.2-572-232.4c-222.1,93.8-326.2,349.9-232.4,572s349.9,326.2,572,232.4
	c104.8-44.2,188.2-127.6,232.4-232.4C1689.5,600.7,1701.1,543,1701.3,484.7z"/>
<path fill="#FFFFFF" d="M1158.4,601.1c-1.1-24.3-2.1-48.5-2.9-72.8c-0.8-24.3-1.7-48.6-2.4-72.8l-2-72.8l-1.6-72.8l13.7,7.5
	l-35.7,23.8l-35.8,23.7l-71.7,47.4L876.1,506l-144.5,92.7c-48.2,30.9-96.7,61.2-145,91.9c-96.8,61.1-194,121.5-291.7,181.2
	c-97.8,59.5-195.8,118.7-295,176c93.8-65.7,188.9-129.5,284.2-192.9s191.2-125.8,287.5-187.7c48.2-30.8,96.2-61.9,144.6-92.6
	l145.1-91.7l145.7-90.8l73.2-44.9l36.5-22.3l36.7-22.3l14.1-8.5l-0.4,16l-1.6,72.8l-2,72.8c-0.6,24.3-1.6,48.5-2.4,72.8
	C1160.5,552.7,1159.5,576.8,1158.4,601.1z"/>
<text transform="matrix(1 0 0 1 1174.8142 545.3795)" fill="#FFFFFF" font-family="'ArialMT'" font-size="38.2998">CH</text>
<line fill="#FFFFFF" x1="1072.6" y1="482.5" x2="1158.4" y2="483.5"/>
<line fill="#FFFFFF" x1="28.2" y1="1029.6" x2="492.7" y2="804.1"/>
<path fill="#FFFFFF" d="M28.2,1029.6c37.9-20.4,76.1-40.4,114.5-59.7c19.1-9.8,38.5-19.1,57.7-28.9l57.9-28.4l58.2-27.9
	c19.5-9.2,38.9-18.5,58.4-27.5c39-18.2,78.2-35.9,117.8-53c-37.9,20.5-76.1,40.4-114.5,59.7c-19.1,9.8-38.3,19.1-57.7,28.7l-58,28.4
	l-58.2,28c-19.5,9.2-38.9,18.4-58.4,27.4C106.9,994.7,67.7,1012.4,28.2,1029.6z"/>
</svg>
